<svg xmlns="http://www.w3.org/2000/svg" x="0px" y="0px" width="25px" height="25px" viewBox="0 0 25 25" style="enable-background:new 0 0 25 25;" xml:space="preserve">
	<g>
		<path d="M21.2,21.6h-6c-0.4,0-0.8-0.3-0.8-0.8s0.3-0.8,0.8-0.8h5.3v-5.2c0-0.4,0.3-0.8,0.8-0.8s0.8,0.3,0.8,0.8v6 C21.9,21.2,21.6,21.6,21.2,21.6z"/>
		<path d="M10,21.6H4c-0.4,0-0.8-0.3-0.8-0.8v-6c0-0.4,0.3-0.8,0.8-0.8s0.8,0.3,0.8,0.8v5.2H10c0.4,0,0.8,0.3,0.8,0.8 S10.4,21.6,10,21.6z"/>
		<path d="M4,10.8c-0.4,0-0.8-0.3-0.8-0.8v-6c0-0.4,0.3-0.8,0.8-0.8h6c0.4,0,0.8,0.3,0.8,0.8S10.4,4.8,10,4.8H4.7v5.3 C4.7,10.5,4.4,10.8,4,10.8z"/>
		<path d="M21.2,10.8c-0.4,0-0.8-0.3-0.8-0.8V4.8h-5.3c-0.4,0-0.8-0.3-0.8-0.8s0.3-0.8,0.8-0.8h6c0.4,0,0.8,0.3,0.8,0.8 v6C21.9,10.5,21.6,10.8,21.2,10.8z"/>
	</g>
</svg>
