<?xml version="1.0" encoding="utf-8"?>
<!-- Generator: Adobe Illustrator 21.0.2, SVG Export Plug-In . SVG Version: 6.00 Build 0)  -->
<svg version="1.1" id="Layer_1" xmlns="http://www.w3.org/2000/svg" xmlns:xlink="http://www.w3.org/1999/xlink" x="0px" y="0px"
	 width="87px" height="25px" viewBox="0 0 87 25" style="enable-background:new 0 0 87 25;" xml:space="preserve">
<style type="text/css">
	.st0{fill:#F2652E;}
</style>
<path d="M18.6,5.3h5.8c1.5,0,2.7,0.4,3.6,1.1c0.8,0.8,1.3,1.9,1.3,3.4c0,1-0.3,1.9-0.8,2.7c-0.5,0.7-1.2,1.2-2.2,1.5l2.9,5.6h-2.6
	l-2.8-5.3h-2.6v5.3h-2.5V5.3H18.6z M24,12.4c0.8,0,1.5-0.4,2-0.8s0.8-1,0.8-1.7c0-1.6-0.9-2.3-2.8-2.3h-2.8v4.8H24L24,12.4z"/>
<path d="M36.3,5.3h2.5l5.6,14.3h-2.6l-1.3-3.3h-5.9l-1.3,3.3h-2.6L36.3,5.3z M39.8,14.2l-2.3-6l-2.2,6H39.8z M37.9,0.9h2.7l-1.7,3.6
	h-2.3L37.9,0.9z"/>
<path d="M46.9,5.3h2.5v14.3h-2.5V5.3z"/>
<path d="M67.4,7.4h-4.2V5.3h11.1v2.1H70v12.2h-2.6V7.4z"/>
<path d="M76.5,5.3H86v2.2h-6.9v3.9h5.1v2.2h-5.1v3.9H86v2.2h-9.5V5.3z"/>
<path class="st0" d="M9.2,5.5c-3.9,0-7.1,3.2-7.1,7.1s3.2,7.1,7.1,7.1s7.1-3.2,7.1-7.1C16.2,8.6,13.1,5.5,9.2,5.5z M9.2,17.2
	c-2.5,0-4.6-2.1-4.6-4.7s2-4.7,4.6-4.7s4.6,2.1,4.6,4.7C13.7,15.1,11.7,17.2,9.2,17.2z"/>
<path d="M57.9,11.3c-1.9-0.7-2.5-1.2-2.5-2.2c0-0.8,0.7-1.6,2.3-1.6c1.1,0,3.5,0.9,3.5,0.9V6.3c0,0-1.8-0.8-3.5-0.8
	c-2.9,0-4.8,1.6-4.8,3.9c0,1.9,1.2,3.2,3.9,4.1c2,0.7,2.4,1.4,2.4,2.3c0,1.2-1,1.9-2.6,1.9c-2,0-4-1.3-4-1.3v2.4c0,0,1.9,1,3.9,1
	c3.8,0,5.2-2.2,5.2-4.1C61.6,13.5,60.5,12.2,57.9,11.3z"/>
</svg>
