<svg xmlns="http://www.w3.org/2000/svg" x="0px" y="0px" width="25px" height="25px" viewBox="0 0 25 25" style="enable-background:new 0 0 25 25;" xml:space="preserve">
	<g>
		<path d="M14.6,1.8c-0.4-0.2-0.9-0.1-1.2,0.2L6.1,8.8H1.5c-0.4,0-0.7,0.3-0.7,0.8v5.3c0,0.4,0.3,0.8,0.7,0.8h4.2 c0.1,0.1,0.1,0.2,0.2,0.3l7.4,7c0.2,0.2,0.5,0.3,0.8,0.3c0.2,0,0.3,0,0.4-0.1c0.5-0.2,0.8-0.7,0.8-1.3V3.1C15.4,2.5,15,2,14.6,1.8z M2.2,10.3h3.2v3.8H2.2V10.3z M13.8,21.3l-6.9-6.5v-4.7l6.9-6.5L13.8,21.3z"/>
		<path d="M17.4,4.5V6c3.1,0.5,5.5,3.2,5.5,6.4c0,3.3-2.4,5.9-5.5,6.4v1.5c4-0.5,7-3.8,7-7.9C24.4,8.4,21.3,5,17.4,4.5z"/>
		<path d="M21.2,12.4c0-2.3-1.6-4.2-3.8-4.7v1.6c1.3,0.4,2.3,1.6,2.3,3.1c0,1.5-1,2.7-2.3,3.1v1.6 C19.6,16.7,21.2,14.7,21.2,12.4z"/>
	</g>
</svg>
