<svg xmlns="http://www.w3.org/2000/svg" x="0px" y="0px" width="25px" height="25px" viewBox="0 0 25 25" style="enable-background:new 0 0 25 25;" xml:space="preserve">
	<g>
		<path d="M10.2,23.2h-5c-0.4,0-0.8-0.3-0.8-0.8v-20c0-0.4,0.3-0.8,0.8-0.8h5C10.7,1.7,11,2,11,2.4v20 C11,22.9,10.7,23.2,10.2,23.2z M6,21.7h3.5V3.2H6V21.7z"/>
		<path d="M19.9,23.2h-5c-0.4,0-0.8-0.3-0.8-0.8v-20c0-0.4,0.3-0.8,0.8-0.8h5c0.4,0,0.8,0.3,0.8,0.8v20 C20.7,22.9,20.3,23.2,19.9,23.2z M15.7,21.7h3.5V3.2h-3.5V21.7z"/>
	</g>
</svg>
