<svg xmlns="http://www.w3.org/2000/svg" x="0px" y="0px" width="25px" height="25px" viewBox="0 0 25 25" style="enable-background:new 0 0 25 25;" xml:space="preserve">
	<g>
		<path d="M8.1,23.2c-0.2,0-0.4,0-0.7-0.1c-0.6-0.3-1-0.9-1-1.6V3.4c0-0.7,0.4-1.3,1-1.6C8,1.6,8.8,1.7,9.3,2.2l9,9 c0.7,0.7,0.7,1.7,0,2.4l-9,9C8.9,23,8.5,23.2,8.1,23.2z M8.1,3.2C8,3.2,8,3.2,8.1,3.2c-0.1,0-0.2,0.1-0.2,0.2v18.1 c0,0.1,0,0.1,0.1,0.2c0.1,0,0.1,0,0.2,0l9-9c0.1-0.1,0.1-0.2,0-0.2l-9-9C8.1,3.3,8.1,3.2,8.1,3.2z"/>
	</g>
</svg>
