<svg xmlns="http://www.w3.org/2000/svg" x="0px" y="0px" width="25px" height="25px" viewBox="0 0 25 25" style="enable-background:new 0 0 25 25;" xml:space="preserve">
	<g>
		<path d="M10,10.8H4c-0.4,0-0.8-0.3-0.8-0.8S3.6,9.3,4,9.3h5.3V4.1c0-0.4,0.3-0.8,0.8-0.8s0.8,0.3,0.8,0.8v6 C10.7,10.5,10.4,10.8,10,10.8z"/>
		<path d="M21.2,10.8h-6c-0.4,0-0.8-0.3-0.8-0.8v-6c0-0.4,0.3-0.8,0.8-0.8s0.8,0.3,0.8,0.8v5.3h5.3 c0.4,0,0.8,0.3,0.8,0.8S21.6,10.8,21.2,10.8z"/>
		<path d="M15.2,21.6c-0.4,0-0.8-0.3-0.8-0.8v-6c0-0.4,0.3-0.8,0.8-0.8h6c0.4,0,0.8,0.3,0.8,0.8s-0.3,0.8-0.8,0.8h-5.3 v5.2C15.9,21.2,15.6,21.6,15.2,21.6z"/>
		<path d="M10,21.6c-0.4,0-0.8-0.3-0.8-0.8v-5.2H4c-0.4,0-0.8-0.3-0.8-0.8s0.3-0.8,0.8-0.8h6c0.4,0,0.8,0.3,0.8,0.8v6 C10.7,21.2,10.4,21.6,10,21.6z"/>
	</g>
</svg>
