<svg xmlns="http://www.w3.org/2000/svg" x="0px" y="0px" width="25px" height="25px" viewBox="0 0 25 25" style="enable-background:new 0 0 25 25;" xml:space="preserve">
	<path d="M14.6,1.8c-0.4-0.2-0.9-0.1-1.2,0.2L6.1,8.8H1.5c-0.4,0-0.7,0.3-0.7,0.8v5.3c0,0.4,0.3,0.8,0.7,0.8h4.2 c0.1,0.1,0.1,0.2,0.2,0.3l7.4,7c0.2,0.2,0.5,0.3,0.8,0.3c0.2,0,0.3,0,0.4-0.1c0.5-0.2,0.8-0.7,0.8-1.3V3.1C15.4,2.5,15,2,14.6,1.8z M2.2,10.3h3.2v3.8H2.2V10.3z M13.8,21.3l-6.9-6.5v-4.7l6.9-6.5V21.3z"/>
	<path d="M21.3,12.5l2.4-2.4c0.3-0.3,0.3-0.8,0-1.1s-0.8-0.3-1.1,0l-2.4,2.4l-2.4-2.4c-0.3-0.3-0.8-0.3-1.1,0 s-0.3,0.8,0,1.1l2.4,2.4l-2.4,2.4c-0.3,0.3-0.3,0.8,0,1.1c0.1,0.1,0.3,0.2,0.5,0.2s0.4-0.1,0.5-0.2l2.4-2.4l2.4,2.4 c0.1,0.1,0.3,0.2,0.5,0.2s0.4-0.1,0.5-0.2c0.3-0.3,0.3-0.8,0-1.1L21.3,12.5z"/>
</svg>
